<svg width="540" height="268" viewBox="0 0 540 268" fill="none" xmlns="http://www.w3.org/2000/svg">
<circle cx="7.5" cy="15" r="7.5" fill="white"/>
<circle cx="7.5" cy="80" r="7.5" fill="white"/>
<circle cx="7.5" cy="146" r="7.5" fill="white"/>
<circle cx="7.5" cy="210" r="7.5" fill="white"/>
<rect x="6" y="0.5" width="3" height="267" fill="white"/>
<path d="M26.5586 23.5V6.58984H29.1836V13.7383H37.8672V6.58984H40.4922V23.5H37.8672V16.0117H29.1836V23.5H26.5586ZM48.5898 23.7461C45.0508 23.7461 42.7422 21.2969 42.7422 17.3359V17.3125C42.7422 13.375 45.0742 10.9375 48.5781 10.9375C52.0938 10.9375 54.4375 13.3633 54.4375 17.3125V17.3359C54.4375 21.3086 52.1172 23.7461 48.5898 23.7461ZM48.6016 21.625C50.582 21.625 51.8477 20.0547 51.8477 17.3359V17.3125C51.8477 14.6172 50.5586 13.0586 48.5781 13.0586C46.6328 13.0586 45.332 14.6172 45.332 17.3125V17.3359C45.332 20.0664 46.6211 21.625 48.6016 21.625ZM48.5898 28.3164C47.7812 28.3164 47.125 27.6602 47.125 26.8633C47.125 26.0547 47.7812 25.3984 48.5898 25.3984C49.4219 25.3984 50.0664 26.0547 50.0664 26.8633C50.0664 27.6602 49.4219 28.3164 48.5898 28.3164ZM61.6914 23.7461C58.0938 23.7461 55.8438 21.2734 55.8438 17.3242V17.3125C55.8438 13.4102 58.1406 10.9375 61.6562 10.9375C64.832 10.9375 66.7539 12.9766 66.9648 15.2969L66.9766 15.3789H64.5625L64.5391 15.2852C64.2695 14.0781 63.332 13.0586 61.6797 13.0586C59.7109 13.0586 58.4336 14.6992 58.4336 17.3359V17.3477C58.4336 20.043 59.7344 21.625 61.6914 21.625C63.25 21.625 64.2461 20.7227 64.5508 19.3867L64.5625 19.293H67L66.9883 19.375C66.7188 21.8477 64.6562 23.7461 61.6914 23.7461ZM78.168 23.5V8.85156H72.9883V6.58984H85.9609V8.85156H80.793V23.5H78.168ZM88.1055 23.5V6.58984H90.7305V13.7383H99.4141V6.58984H102.039V23.5H99.4141V16.0117H90.7305V23.5H88.1055ZM105.145 23.5V6.58984H111.438C114.754 6.58984 117.051 8.81641 117.051 12.1328V12.1562C117.051 15.4609 114.754 17.7227 111.438 17.7227H107.77V23.5H105.145ZM110.781 8.80469H107.77V15.5195H110.781C113.066 15.5195 114.379 14.2891 114.379 12.168V12.1445C114.379 10.0352 113.066 8.80469 110.781 8.80469ZM123.543 23.5V8.85156H118.363V6.58984H131.336V8.85156H126.168V23.5H123.543Z" fill="white"/>
<path d="M25.791 40.5V32.0449H26.5879V35.8066H31.5332V32.0449H32.3359V40.5H31.5332V36.5332H26.5879V40.5H25.791ZM36.2734 40.6113C34.6094 40.6055 33.4961 39.3867 33.4961 37.4531V37.4414C33.4961 35.5078 34.6152 34.2949 36.2734 34.2949C37.9258 34.2949 39.0508 35.502 39.0508 37.4414V37.4531C39.0508 39.3926 37.9316 40.6113 36.2734 40.6113ZM36.2793 39.9199C37.4688 39.9199 38.2598 38.9941 38.2598 37.4531V37.4414C38.2598 35.9004 37.4629 34.9863 36.2734 34.9863C35.084 34.9863 34.293 35.9062 34.293 37.4414V37.4531C34.293 39 35.0781 39.9141 36.2793 39.9199ZM36.2734 42.627C35.9922 42.627 35.7578 42.3984 35.7578 42.1172C35.7578 41.8242 35.9922 41.6016 36.2734 41.6016C36.5605 41.6016 36.7891 41.8242 36.7891 42.1172C36.7891 42.3984 36.5605 42.627 36.2734 42.627ZM42.5488 40.6113C40.8555 40.6113 39.7773 39.3867 39.7773 37.4473V37.4414C39.7773 35.5254 40.873 34.2949 42.543 34.2949C43.9609 34.2949 44.8809 35.2148 45.0332 36.2637L45.0391 36.3164H44.2773L44.2656 36.2695C44.0957 35.5547 43.4922 34.9863 42.543 34.9863C41.3535 34.9863 40.5742 35.9414 40.5742 37.4531V37.459C40.5742 38.9941 41.3652 39.9199 42.5488 39.9199C43.457 39.9199 44.084 39.3984 44.2656 38.6367L44.2773 38.5898H45.0449L45.0391 38.6367C44.8574 39.7734 43.8789 40.6113 42.5488 40.6113ZM50.8164 40.5V32.7715H48.0273V32.0449H54.4141V32.7715H51.6191V40.5H50.8164ZM55.4277 40.5V32.0449H56.2246V35.8066H61.1699V32.0449H61.9727V40.5H61.1699V36.5332H56.2246V40.5H55.4277ZM63.5605 40.5V32.0449H66.4375C68.0488 32.0449 69.1504 33.0938 69.1504 34.6641V34.6758C69.1504 36.2461 68.0488 37.3125 66.4375 37.3125H64.3574V40.5H63.5605ZM66.25 32.7598H64.3574V36.5977H66.25C67.5508 36.5977 68.3359 35.877 68.3359 34.6816V34.6699C68.3359 33.4805 67.5508 32.7598 66.25 32.7598ZM72.5195 40.5V32.7715H69.7305V32.0449H76.1172V32.7715H73.3223V40.5H72.5195ZM81.6426 40.5V32.9004H81.6191L79.3516 34.4238V33.6094L81.6309 32.0449H82.416V40.5H81.6426ZM84.5312 37.4473V36.7207H88.3105V37.4473H84.5312ZM92.5293 40.6348C90.9824 40.6348 89.8281 39.6562 89.6992 38.3555L89.6934 38.2969H90.4785L90.4844 38.3379C90.6016 39.2344 91.4512 39.9258 92.541 39.9258C93.7949 39.9258 94.6973 39.0352 94.6973 37.7988V37.7871C94.6914 36.5684 93.7949 35.666 92.5762 35.666C91.9082 35.666 91.3164 35.9121 90.9004 36.3574C90.7773 36.4805 90.6602 36.6211 90.5664 36.7852H89.8457L90.3027 32.0449H94.9902V32.7598H90.9648L90.6309 35.9414H90.6543C91.0762 35.3262 91.8438 34.9746 92.7051 34.9746C94.3164 34.9746 95.5 36.1582 95.5 37.7695V37.7812C95.4941 39.4453 94.252 40.6348 92.5293 40.6348ZM101.137 42.5508C100.029 41.1387 99.5137 39.3574 99.5137 37.2949C99.5137 35.2383 100.029 33.457 101.137 32.0449H101.811C100.914 33.1406 100.305 35.3496 100.305 37.2949C100.305 39.2461 100.914 41.4551 101.811 42.5508H101.137ZM102.777 40.5V39.9375L105.766 36.7969C106.979 35.5371 107.277 35.0273 107.277 34.2891V34.2773C107.271 33.3223 106.521 32.6133 105.49 32.6133C104.359 32.6133 103.539 33.3809 103.516 34.3711L103.51 34.418H102.736V34.3652C102.76 32.9531 103.949 31.9102 105.473 31.9102C106.979 31.9102 108.074 32.9297 108.074 34.2422V34.2539C108.074 35.1621 107.652 35.8535 106.152 37.4004L103.891 39.7559V39.7852H108.291V40.5H102.777ZM112.387 40.6348C110.477 40.6348 109.334 38.9531 109.334 36.2812V36.2637C109.334 33.5859 110.477 31.9102 112.387 31.9102C114.297 31.9102 115.445 33.5918 115.445 36.2637V36.2812C115.445 38.959 114.297 40.6348 112.387 40.6348ZM112.387 39.9316C113.805 39.9316 114.643 38.5195 114.643 36.2812V36.2637C114.643 34.0137 113.805 32.6191 112.387 32.6191C110.969 32.6191 110.137 34.0195 110.137 36.2637V36.2812C110.137 38.5254 110.969 39.9316 112.387 39.9316ZM118.732 40.5V32.9004H118.709L116.441 34.4238V33.6094L118.721 32.0449H119.506V40.5H118.732ZM124.445 40.6348C122.676 40.6348 121.428 39.627 121.428 38.209V38.1973C121.428 37.1367 122.195 36.2695 123.309 36.0293V36.0117C122.354 35.7422 121.732 35.0391 121.732 34.125V34.1133C121.732 32.8418 122.869 31.9102 124.445 31.9102C126.021 31.9102 127.152 32.8418 127.152 34.1133V34.125C127.152 35.0391 126.531 35.7422 125.576 36.0117V36.0293C126.689 36.2695 127.457 37.1367 127.457 38.1973V38.209C127.457 39.627 126.215 40.6348 124.445 40.6348ZM124.445 35.707C125.57 35.707 126.355 35.0742 126.355 34.1895V34.1777C126.355 33.2754 125.576 32.6074 124.445 32.6074C123.309 32.6074 122.529 33.2754 122.529 34.1777V34.1895C122.529 35.0742 123.314 35.707 124.445 35.707ZM124.445 39.9316C125.74 39.9316 126.643 39.1875 126.643 38.1621V38.1504C126.643 37.1367 125.74 36.4219 124.445 36.4219C123.145 36.4219 122.242 37.1367 122.242 38.1504V38.1621C122.242 39.1875 123.15 39.9316 124.445 39.9316ZM131.125 37.4473V36.7207H134.904V37.4473H131.125ZM138.754 40.5V39.9375L141.742 36.7969C142.955 35.5371 143.254 35.0273 143.254 34.2891V34.2773C143.248 33.3223 142.498 32.6133 141.467 32.6133C140.336 32.6133 139.516 33.3809 139.492 34.3711L139.486 34.418H138.713V34.3652C138.736 32.9531 139.926 31.9102 141.449 31.9102C142.955 31.9102 144.051 32.9297 144.051 34.2422V34.2539C144.051 35.1621 143.629 35.8535 142.129 37.4004L139.867 39.7559V39.7852H144.268V40.5H138.754ZM148.363 40.6348C146.453 40.6348 145.311 38.9531 145.311 36.2812V36.2637C145.311 33.5859 146.453 31.9102 148.363 31.9102C150.273 31.9102 151.422 33.5918 151.422 36.2637V36.2812C151.422 38.959 150.273 40.6348 148.363 40.6348ZM148.363 39.9316C149.781 39.9316 150.619 38.5195 150.619 36.2812V36.2637C150.619 34.0137 149.781 32.6191 148.363 32.6191C146.945 32.6191 146.113 34.0195 146.113 36.2637V36.2812C146.113 38.5254 146.945 39.9316 148.363 39.9316ZM152.582 40.5V39.9375L155.57 36.7969C156.783 35.5371 157.082 35.0273 157.082 34.2891V34.2773C157.076 33.3223 156.326 32.6133 155.295 32.6133C154.164 32.6133 153.344 33.3809 153.32 34.3711L153.314 34.418H152.541V34.3652C152.564 32.9531 153.754 31.9102 155.277 31.9102C156.783 31.9102 157.879 32.9297 157.879 34.2422V34.2539C157.879 35.1621 157.457 35.8535 155.957 37.4004L153.695 39.7559V39.7852H158.096V40.5H152.582ZM161.459 40.5V32.9004H161.436L159.168 34.4238V33.6094L161.447 32.0449H162.232V40.5H161.459ZM164.605 42.5508H163.932C164.828 41.4551 165.438 39.2402 165.438 37.2949C165.438 35.3496 164.828 33.1406 163.932 32.0449H164.605C165.713 33.457 166.229 35.2383 166.229 37.2949C166.229 39.3574 165.713 41.1445 164.605 42.5508Z" fill="white"/>
<path d="M33.7891 88.7812C28.9961 88.7812 25.9492 85.4062 25.9492 80.0391V80.0273C25.9492 74.6602 28.9961 71.3086 33.7891 71.3086C37.5156 71.3086 40.3164 73.6055 40.8438 76.9453L40.8672 77.0508H38.2656L38.1953 76.8164C37.6328 74.8359 36.0625 73.6289 33.7891 73.6289C30.6484 73.6289 28.6328 76.1133 28.6328 80.0273V80.0391C28.6328 83.9531 30.6602 86.4609 33.7891 86.4609C36.0391 86.4609 37.5977 85.2891 38.2305 83.1445L38.2656 83.0391H40.8672L40.8555 83.1562C40.3281 86.5195 37.5273 88.7812 33.7891 88.7812ZM42.9414 88.5V76.1719H45.4727V78.2812H45.5312C45.9297 76.8398 46.9609 75.9375 48.3672 75.9375C48.7305 75.9375 49.0469 75.9961 49.2461 76.0312V78.3867C49.0469 78.3047 48.6016 78.2461 48.1094 78.2461C46.4805 78.2461 45.4727 79.3125 45.4727 81.1523V88.5H42.9414ZM55.0117 88.7461C52.3047 88.7461 50.7578 87 50.7578 84.1641V76.1719H53.2891V83.6719C53.2891 85.5352 54.1562 86.5664 55.9141 86.5664C57.6953 86.5664 58.8438 85.2891 58.8438 83.3672V76.1719H61.3867V88.5H58.8438V86.6484H58.7852C58.1406 87.8906 56.8867 88.7461 55.0117 88.7461ZM69.1914 88.7461C65.5938 88.7461 63.3438 86.2734 63.3438 82.3242V82.3125C63.3438 78.4102 65.6406 75.9375 69.1562 75.9375C72.332 75.9375 74.2539 77.9766 74.4648 80.2969L74.4766 80.3789H72.0625L72.0391 80.2852C71.7695 79.0781 70.832 78.0586 69.1797 78.0586C67.2109 78.0586 65.9336 79.6992 65.9336 82.3359V82.3477C65.9336 85.043 67.2344 86.625 69.1914 86.625C70.75 86.625 71.7461 85.7227 72.0508 84.3867L72.0625 84.293H74.5L74.4883 84.375C74.2188 86.8477 72.1562 88.7461 69.1914 88.7461ZM77.6641 74.2734C76.8438 74.2734 76.1875 73.6172 76.1875 72.8203C76.1875 72.0117 76.8438 71.3555 77.6641 71.3555C78.4961 71.3555 79.1406 72.0117 79.1406 72.8203C79.1406 73.6172 78.4961 74.2734 77.6641 74.2734ZM76.3984 88.5V76.1719H78.9297V88.5H76.3984ZM85.1641 88.7227C82.7031 88.7227 81.0508 87.2109 81.0508 84.9961V84.9727C81.0508 82.8281 82.7148 81.5156 85.6328 81.3398L88.9844 81.1406V80.2148C88.9844 78.8555 88.1055 78.0352 86.5352 78.0352C85.0703 78.0352 84.168 78.7266 83.957 79.7109L83.9336 79.8164H81.543L81.5547 79.6875C81.7305 77.5664 83.5703 75.9375 86.6055 75.9375C89.6172 75.9375 91.5273 77.5312 91.5273 80.0039V88.5H88.9844V86.5547H88.9375C88.2227 87.8789 86.793 88.7227 85.1641 88.7227ZM83.6055 84.9375C83.6055 86.0156 84.4961 86.6953 85.8555 86.6953C87.6367 86.6953 88.9844 85.4883 88.9844 83.8828V82.9219L85.9727 83.1094C84.4492 83.2031 83.6055 83.8711 83.6055 84.9141V84.9375ZM94.082 88.5V71.5898H96.6133V88.5H94.082ZM103.539 88.7461C101.102 88.7461 99.9297 87.7148 99.9297 85.2539V78.1875H98.1602V76.1719H99.9297V72.9609H102.52V76.1719H104.828V78.1875H102.52V85.1016C102.52 86.3555 103.082 86.7305 104.148 86.7305C104.418 86.7305 104.641 86.707 104.828 86.6836V88.6406C104.535 88.6875 104.055 88.7461 103.539 88.7461ZM111.883 88.7461C108.262 88.7461 106.07 86.2734 106.07 82.3828V82.3711C106.07 78.5156 108.297 75.9375 111.754 75.9375C115.211 75.9375 117.332 78.4219 117.332 82.125V82.9805H108.602C108.648 85.3125 109.926 86.6719 111.941 86.6719C113.441 86.6719 114.438 85.8984 114.754 84.9727L114.789 84.8789H117.191L117.168 85.0078C116.77 86.9648 114.871 88.7461 111.883 88.7461ZM111.766 78.0117C110.125 78.0117 108.859 79.125 108.637 81.1875H114.824C114.613 79.0547 113.418 78.0117 111.766 78.0117ZM124.598 88.7461C121 88.7461 118.75 86.2734 118.75 82.3242V82.3125C118.75 78.4102 121.047 75.9375 124.562 75.9375C127.738 75.9375 129.66 77.9766 129.871 80.2969L129.883 80.3789H127.469L127.445 80.2852C127.176 79.0781 126.238 78.0586 124.586 78.0586C122.617 78.0586 121.34 79.6992 121.34 82.3359V82.3477C121.34 85.043 122.641 86.625 124.598 86.625C126.156 86.625 127.152 85.7227 127.457 84.3867L127.469 84.293H129.906L129.895 84.375C129.625 86.8477 127.562 88.7461 124.598 88.7461ZM141.648 88.5L135.625 71.5898H138.449L143.066 85.582H143.125L147.742 71.5898H150.566L144.543 88.5H141.648ZM153.203 74.2734C152.383 74.2734 151.727 73.6172 151.727 72.8203C151.727 72.0117 152.383 71.3555 153.203 71.3555C154.035 71.3555 154.68 72.0117 154.68 72.8203C154.68 73.6172 154.035 74.2734 153.203 74.2734ZM151.938 88.5V76.1719H154.469V88.5H151.938ZM157.082 88.5V76.1719H159.613V78.0352H159.672C160.316 76.7812 161.582 75.9375 163.445 75.9375C166.152 75.9375 167.711 77.6836 167.711 80.5195V88.5H165.168V81C165.168 79.1484 164.301 78.1055 162.543 78.1055C160.762 78.1055 159.613 79.3945 159.613 81.3164V88.5H157.082ZM173.781 88.7227C171.32 88.7227 169.668 87.2109 169.668 84.9961V84.9727C169.668 82.8281 171.332 81.5156 174.25 81.3398L177.602 81.1406V80.2148C177.602 78.8555 176.723 78.0352 175.152 78.0352C173.688 78.0352 172.785 78.7266 172.574 79.7109L172.551 79.8164H170.16L170.172 79.6875C170.348 77.5664 172.188 75.9375 175.223 75.9375C178.234 75.9375 180.145 77.5312 180.145 80.0039V88.5H177.602V86.5547H177.555C176.84 87.8789 175.41 88.7227 173.781 88.7227ZM172.223 84.9375C172.223 86.0156 173.113 86.6953 174.473 86.6953C176.254 86.6953 177.602 85.4883 177.602 83.8828V82.9219L174.59 83.1094C173.066 83.2031 172.223 83.8711 172.223 84.9141V84.9375Z" fill="white"/>
<path d="M27.5781 105.5L25.252 97.0449H26.0898L27.959 104.305H27.9766L30.0273 97.0449H30.8301L32.8809 104.305H32.8984L34.7676 97.0449H35.6055L33.2793 105.5H32.5293L30.4375 98.3633H30.4199L28.3281 105.5H27.5781ZM38.3594 105.611C36.6953 105.605 35.582 104.387 35.582 102.453V102.441C35.582 100.508 36.7012 99.2949 38.3594 99.2949C40.0117 99.2949 41.1367 100.502 41.1367 102.441V102.453C41.1367 104.393 40.0176 105.611 38.3594 105.611ZM38.3652 104.92C39.5547 104.92 40.3457 103.994 40.3457 102.453V102.441C40.3457 100.9 39.5488 99.9863 38.3594 99.9863C37.1699 99.9863 36.3789 100.906 36.3789 102.441V102.453C36.3789 104 37.1641 104.914 38.3652 104.92ZM42.168 105.5V99.4062H42.9414V100.502H42.9648C43.1816 99.7578 43.7207 99.2949 44.459 99.2949C44.6641 99.2949 44.8457 99.3359 44.9395 99.3652V100.121C44.8398 100.08 44.623 100.039 44.3594 100.039C43.4922 100.039 42.9414 100.695 42.9414 101.727V105.5H42.168ZM45.8535 105.5V97.0449H46.627V102.277H46.6504L49.6387 99.4062H50.5996L47.8633 102.031L50.6582 105.5H49.7441L47.3066 102.506L46.627 103.139V105.5H45.8535ZM53.5293 105.611C51.8184 105.611 50.7578 104.398 50.7578 102.471V102.465C50.7578 100.555 51.8359 99.2949 53.4648 99.2949C55.0938 99.2949 56.1191 100.514 56.1191 102.336V102.641H51.543C51.5664 104.094 52.3457 104.92 53.5469 104.92C54.4434 104.92 55.0645 104.469 55.2637 103.807L55.2754 103.754H56.043L56.0312 103.812C55.8203 104.855 54.8477 105.611 53.5293 105.611ZM53.459 99.9863C52.4219 99.9863 51.6484 100.73 51.5547 102.025H55.3398C55.252 100.695 54.502 99.9863 53.459 99.9863ZM57.1562 105.5V99.4062H57.9297V100.502H57.9531C58.1699 99.7578 58.709 99.2949 59.4473 99.2949C59.6523 99.2949 59.834 99.3359 59.9277 99.3652V100.121C59.8281 100.08 59.6113 100.039 59.3477 100.039C58.4805 100.039 57.9297 100.695 57.9297 101.727V105.5H57.1562ZM65.3008 107.551C64.1934 106.139 63.6777 104.357 63.6777 102.295C63.6777 100.238 64.1934 98.457 65.3008 97.0449H65.9746C65.0781 98.1406 64.4688 100.35 64.4688 102.295C64.4688 104.246 65.0781 106.455 65.9746 107.551H65.3008ZM66.9414 105.5V104.938L69.9297 101.797C71.1426 100.537 71.4414 100.027 71.4414 99.2891V99.2773C71.4355 98.3223 70.6855 97.6133 69.6543 97.6133C68.5234 97.6133 67.7031 98.3809 67.6797 99.3711L67.6738 99.418H66.9004V99.3652C66.9238 97.9531 68.1133 96.9102 69.6367 96.9102C71.1426 96.9102 72.2383 97.9297 72.2383 99.2422V99.2539C72.2383 100.162 71.8164 100.854 70.3164 102.4L68.0547 104.756V104.785H72.4551V105.5H66.9414ZM76.5508 105.635C74.6406 105.635 73.498 103.953 73.498 101.281V101.264C73.498 98.5859 74.6406 96.9102 76.5508 96.9102C78.4609 96.9102 79.6094 98.5918 79.6094 101.264V101.281C79.6094 103.959 78.4609 105.635 76.5508 105.635ZM76.5508 104.932C77.9688 104.932 78.8066 103.52 78.8066 101.281V101.264C78.8066 99.0137 77.9688 97.6191 76.5508 97.6191C75.1328 97.6191 74.3008 99.0195 74.3008 101.264V101.281C74.3008 103.525 75.1328 104.932 76.5508 104.932ZM80.7695 105.5V104.938L83.7578 101.797C84.9707 100.537 85.2695 100.027 85.2695 99.2891V99.2773C85.2637 98.3223 84.5137 97.6133 83.4824 97.6133C82.3516 97.6133 81.5312 98.3809 81.5078 99.3711L81.502 99.418H80.7285V99.3652C80.752 97.9531 81.9414 96.9102 83.4648 96.9102C84.9707 96.9102 86.0664 97.9297 86.0664 99.2422V99.2539C86.0664 100.162 85.6445 100.854 84.1445 102.4L81.8828 104.756V104.785H86.2832V105.5H80.7695ZM89.6465 105.5V97.9004H89.623L87.3555 99.4238V98.6094L89.6348 97.0449H90.4199V105.5H89.6465ZM94.9961 102.447V101.721H98.7754V102.447H94.9961ZM102.625 105.5V104.938L105.613 101.797C106.826 100.537 107.125 100.027 107.125 99.2891V99.2773C107.119 98.3223 106.369 97.6133 105.338 97.6133C104.207 97.6133 103.387 98.3809 103.363 99.3711L103.357 99.418H102.584V99.3652C102.607 97.9531 103.797 96.9102 105.32 96.9102C106.826 96.9102 107.922 97.9297 107.922 99.2422V99.2539C107.922 100.162 107.5 100.854 106 102.4L103.738 104.756V104.785H108.139V105.5H102.625ZM112.234 105.635C110.324 105.635 109.182 103.953 109.182 101.281V101.264C109.182 98.5859 110.324 96.9102 112.234 96.9102C114.145 96.9102 115.293 98.5918 115.293 101.264V101.281C115.293 103.959 114.145 105.635 112.234 105.635ZM112.234 104.932C113.652 104.932 114.49 103.52 114.49 101.281V101.264C114.49 99.0137 113.652 97.6191 112.234 97.6191C110.816 97.6191 109.984 99.0195 109.984 101.264V101.281C109.984 103.525 110.816 104.932 112.234 104.932ZM116.453 105.5V104.938L119.441 101.797C120.654 100.537 120.953 100.027 120.953 99.2891V99.2773C120.947 98.3223 120.197 97.6133 119.166 97.6133C118.035 97.6133 117.215 98.3809 117.191 99.3711L117.186 99.418H116.412V99.3652C116.436 97.9531 117.625 96.9102 119.148 96.9102C120.654 96.9102 121.75 97.9297 121.75 99.2422V99.2539C121.75 100.162 121.328 100.854 119.828 102.4L117.566 104.756V104.785H121.967V105.5H116.453ZM123.203 105.5V104.938L126.191 101.797C127.404 100.537 127.703 100.027 127.703 99.2891V99.2773C127.697 98.3223 126.947 97.6133 125.916 97.6133C124.785 97.6133 123.965 98.3809 123.941 99.3711L123.936 99.418H123.162V99.3652C123.186 97.9531 124.375 96.9102 125.898 96.9102C127.404 96.9102 128.5 97.9297 128.5 99.2422V99.2539C128.5 100.162 128.078 100.854 126.578 102.4L124.316 104.756V104.785H128.717V105.5H123.203ZM130.164 107.551H129.49C130.387 106.455 130.996 104.24 130.996 102.295C130.996 100.35 130.387 98.1406 129.49 97.0449H130.164C131.271 98.457 131.787 100.238 131.787 102.295C131.787 104.357 131.271 106.145 130.164 107.551Z" fill="white"/>
<path d="M26.5586 153.5V136.59H29.1836V144.688H29.2539L36.0742 136.59H39.1914L32.7812 144.066L39.7422 153.5H36.4961L30.9062 145.859L29.1836 147.852V153.5H26.5586ZM45.6836 153.746C42.1445 153.746 39.8359 151.297 39.8359 147.336V147.312C39.8359 143.375 42.168 140.938 45.6719 140.938C49.1875 140.938 51.5312 143.363 51.5312 147.312V147.336C51.5312 151.309 49.2109 153.746 45.6836 153.746ZM45.6953 151.625C47.6758 151.625 48.9414 150.055 48.9414 147.336V147.312C48.9414 144.617 47.6523 143.059 45.6719 143.059C43.7266 143.059 42.4258 144.617 42.4258 147.312V147.336C42.4258 150.066 43.7148 151.625 45.6953 151.625ZM53.4883 153.5V141.172H56.0195V143.035H56.0781C56.7227 141.781 57.9883 140.938 59.8516 140.938C62.5586 140.938 64.1172 142.684 64.1172 145.52V153.5H61.5742V146C61.5742 144.148 60.707 143.105 58.9492 143.105C57.168 143.105 56.0195 144.395 56.0195 146.316V153.5H53.4883ZM70.1875 153.723C67.7266 153.723 66.0742 152.211 66.0742 149.996V149.973C66.0742 147.828 67.7383 146.516 70.6562 146.34L74.0078 146.141V145.215C74.0078 143.855 73.1289 143.035 71.5586 143.035C70.0938 143.035 69.1914 143.727 68.9805 144.711L68.957 144.816H66.5664L66.5781 144.688C66.7539 142.566 68.5938 140.938 71.6289 140.938C74.6406 140.938 76.5508 142.531 76.5508 145.004V153.5H74.0078V151.555H73.9609C73.2461 152.879 71.8164 153.723 70.1875 153.723ZM68.6289 149.938C68.6289 151.016 69.5195 151.695 70.8789 151.695C72.6602 151.695 74.0078 150.488 74.0078 148.883V147.922L70.9961 148.109C69.4727 148.203 68.6289 148.871 68.6289 149.914V149.938ZM79.3164 153.5V136.59H89.875V138.852H81.9414V144.207H89.207V146.422H81.9414V153.5H79.3164ZM91.8555 153.5V141.172H94.3867V143.281H94.4453C94.8438 141.84 95.875 140.938 97.2812 140.938C97.6445 140.938 97.9609 140.996 98.1602 141.031V143.387C97.9609 143.305 97.5156 143.246 97.0234 143.246C95.3945 143.246 94.3867 144.312 94.3867 146.152V153.5H91.8555ZM103.926 153.746C101.219 153.746 99.6719 152 99.6719 149.164V141.172H102.203V148.672C102.203 150.535 103.07 151.566 104.828 151.566C106.609 151.566 107.758 150.289 107.758 148.367V141.172H110.301V153.5H107.758V151.648H107.699C107.055 152.891 105.801 153.746 103.926 153.746ZM114.18 139.273C113.359 139.273 112.703 138.617 112.703 137.82C112.703 137.012 113.359 136.355 114.18 136.355C115.012 136.355 115.656 137.012 115.656 137.82C115.656 138.617 115.012 139.273 114.18 139.273ZM112.914 153.5V141.172H115.445V153.5H112.914ZM122.383 153.746C119.945 153.746 118.773 152.715 118.773 150.254V143.188H117.004V141.172H118.773V137.961H121.363V141.172H123.672V143.188H121.363V150.102C121.363 151.355 121.926 151.73 122.992 151.73C123.262 151.73 123.484 151.707 123.672 151.684V153.641C123.379 153.688 122.898 153.746 122.383 153.746Z" fill="white"/>
<path d="M28.5039 170.635C26.7109 170.635 25.4922 169.727 25.3867 168.297L25.3809 168.215H26.1836L26.1895 168.297C26.3066 169.27 27.209 169.891 28.5449 169.891C29.8691 169.891 30.7246 169.264 30.7246 168.285V168.279C30.7246 167.447 30.1973 166.984 28.8965 166.691L27.9707 166.486C26.3301 166.117 25.5918 165.408 25.5918 164.207V164.201C25.5977 162.859 26.7988 161.91 28.4746 161.91C30.1035 161.91 31.2871 162.859 31.3867 164.248L31.3926 164.33H30.5898L30.584 164.254C30.4609 163.264 29.6465 162.654 28.4512 162.654C27.2324 162.654 26.4062 163.27 26.4062 164.178V164.189C26.4062 164.975 26.957 165.455 28.1816 165.725L29.1074 165.936C30.8418 166.322 31.5449 166.996 31.5449 168.244V168.25C31.5449 169.697 30.3613 170.635 28.5039 170.635ZM35.0605 170.611C33.3496 170.611 32.2891 169.398 32.2891 167.471V167.465C32.2891 165.555 33.3672 164.295 34.9961 164.295C36.625 164.295 37.6504 165.514 37.6504 167.336V167.641H33.0742C33.0977 169.094 33.877 169.92 35.0781 169.92C35.9746 169.92 36.5957 169.469 36.7949 168.807L36.8066 168.754H37.5742L37.5625 168.812C37.3516 169.855 36.3789 170.611 35.0605 170.611ZM34.9902 164.986C33.9531 164.986 33.1797 165.73 33.0859 167.025H36.8711C36.7832 165.695 36.0332 164.986 34.9902 164.986ZM38.7402 170.5V162.045H39.5137V170.5H38.7402ZM40.9551 170.5V162.045H41.7285V170.5H40.9551ZM45.584 170.611C43.873 170.611 42.8125 169.398 42.8125 167.471V167.465C42.8125 165.555 43.8906 164.295 45.5195 164.295C47.1484 164.295 48.1738 165.514 48.1738 167.336V167.641H43.5977C43.6211 169.094 44.4004 169.92 45.6016 169.92C46.498 169.92 47.1191 169.469 47.3184 168.807L47.3301 168.754H48.0977L48.0859 168.812C47.875 169.855 46.9023 170.611 45.584 170.611ZM45.5137 164.986C44.4766 164.986 43.7031 165.73 43.6094 167.025H47.3945C47.3066 165.695 46.5566 164.986 45.5137 164.986ZM49.2109 170.5V164.406H49.9844V165.502H50.0078C50.2246 164.758 50.7637 164.295 51.502 164.295C51.707 164.295 51.8887 164.336 51.9824 164.365V165.121C51.8828 165.08 51.666 165.039 51.4023 165.039C50.5352 165.039 49.9844 165.695 49.9844 166.727V170.5H49.2109ZM57.3555 172.551C56.248 171.139 55.7324 169.357 55.7324 167.295C55.7324 165.238 56.248 163.457 57.3555 162.045H58.0293C57.1328 163.141 56.5234 165.35 56.5234 167.295C56.5234 169.246 57.1328 171.455 58.0293 172.551H57.3555ZM58.9961 170.5V169.938L61.9844 166.797C63.1973 165.537 63.4961 165.027 63.4961 164.289V164.277C63.4902 163.322 62.7402 162.613 61.709 162.613C60.5781 162.613 59.7578 163.381 59.7344 164.371L59.7285 164.418H58.9551V164.365C58.9785 162.953 60.168 161.91 61.6914 161.91C63.1973 161.91 64.293 162.93 64.293 164.242V164.254C64.293 165.162 63.8711 165.854 62.3711 167.4L60.1094 169.756V169.785H64.5098V170.5H58.9961ZM68.6055 170.635C66.6953 170.635 65.5527 168.953 65.5527 166.281V166.264C65.5527 163.586 66.6953 161.91 68.6055 161.91C70.5156 161.91 71.6641 163.592 71.6641 166.264V166.281C71.6641 168.959 70.5156 170.635 68.6055 170.635ZM68.6055 169.932C70.0234 169.932 70.8613 168.52 70.8613 166.281V166.264C70.8613 164.014 70.0234 162.619 68.6055 162.619C67.1875 162.619 66.3555 164.02 66.3555 166.264V166.281C66.3555 168.525 67.1875 169.932 68.6055 169.932ZM72.8242 170.5V169.938L75.8125 166.797C77.0254 165.537 77.3242 165.027 77.3242 164.289V164.277C77.3184 163.322 76.5684 162.613 75.5371 162.613C74.4062 162.613 73.5859 163.381 73.5625 164.371L73.5566 164.418H72.7832V164.365C72.8066 162.953 73.9961 161.91 75.5195 161.91C77.0254 161.91 78.1211 162.93 78.1211 164.242V164.254C78.1211 165.162 77.6992 165.854 76.1992 167.4L73.9375 169.756V169.785H78.3379V170.5H72.8242ZM79.5742 170.5V169.938L82.5625 166.797C83.7754 165.537 84.0742 165.027 84.0742 164.289V164.277C84.0684 163.322 83.3184 162.613 82.2871 162.613C81.1562 162.613 80.3359 163.381 80.3125 164.371L80.3066 164.418H79.5332V164.365C79.5566 162.953 80.7461 161.91 82.2695 161.91C83.7754 161.91 84.8711 162.93 84.8711 164.242V164.254C84.8711 165.162 84.4492 165.854 82.9492 167.4L80.6875 169.756V169.785H85.0879V170.5H79.5742ZM88.7383 167.447V166.721H92.5176V167.447H88.7383ZM96.3672 170.5V169.938L99.3555 166.797C100.568 165.537 100.867 165.027 100.867 164.289V164.277C100.861 163.322 100.111 162.613 99.0801 162.613C97.9492 162.613 97.1289 163.381 97.1055 164.371L97.0996 164.418H96.3262V164.365C96.3496 162.953 97.5391 161.91 99.0625 161.91C100.568 161.91 101.664 162.93 101.664 164.242V164.254C101.664 165.162 101.242 165.854 99.7422 167.4L97.4805 169.756V169.785H101.881V170.5H96.3672ZM105.977 170.635C104.066 170.635 102.924 168.953 102.924 166.281V166.264C102.924 163.586 104.066 161.91 105.977 161.91C107.887 161.91 109.035 163.592 109.035 166.264V166.281C109.035 168.959 107.887 170.635 105.977 170.635ZM105.977 169.932C107.395 169.932 108.232 168.52 108.232 166.281V166.264C108.232 164.014 107.395 162.619 105.977 162.619C104.559 162.619 103.727 164.02 103.727 166.264V166.281C103.727 168.525 104.559 169.932 105.977 169.932ZM110.195 170.5V169.938L113.184 166.797C114.396 165.537 114.695 165.027 114.695 164.289V164.277C114.689 163.322 113.939 162.613 112.908 162.613C111.777 162.613 110.957 163.381 110.934 164.371L110.928 164.418H110.154V164.365C110.178 162.953 111.367 161.91 112.891 161.91C114.396 161.91 115.492 162.93 115.492 164.242V164.254C115.492 165.162 115.07 165.854 113.57 167.4L111.309 169.756V169.785H115.709V170.5H110.195ZM119.682 170.635C117.982 170.635 116.893 169.674 116.764 168.373L116.758 168.309H117.531L117.537 168.361C117.654 169.275 118.451 169.932 119.682 169.932C120.9 169.932 121.762 169.217 121.762 168.215V168.203C121.762 167.096 120.93 166.463 119.588 166.463H118.568V165.777H119.553C120.678 165.777 121.463 165.109 121.463 164.178V164.166C121.463 163.217 120.766 162.613 119.652 162.613C118.562 162.613 117.807 163.229 117.713 164.125L117.707 164.184H116.934L116.939 164.125C117.068 162.824 118.111 161.91 119.652 161.91C121.211 161.91 122.271 162.812 122.271 164.072V164.084C122.271 165.127 121.545 165.859 120.467 166.076V166.1C121.727 166.199 122.576 166.984 122.576 168.186V168.197C122.576 169.598 121.352 170.635 119.682 170.635ZM124.094 172.551H123.42C124.316 171.455 124.926 169.24 124.926 167.295C124.926 165.35 124.316 163.141 123.42 162.045H124.094C125.201 163.457 125.717 165.238 125.717 167.295C125.717 169.357 125.201 171.145 124.094 172.551Z" fill="white"/>
<path d="M25.3047 218.5L31.457 201.59H34.293L40.4336 218.5H37.6797L36.1328 213.93H29.6172L28.0586 218.5H25.3047ZM32.8516 204.391L30.3203 211.82H35.418L32.8984 204.391H32.8516ZM42.0039 218.5V206.172H44.5352V208.281H44.5938C44.9922 206.84 46.0234 205.938 47.4297 205.938C47.793 205.938 48.1094 205.996 48.3086 206.031V208.387C48.1094 208.305 47.6641 208.246 47.1719 208.246C45.543 208.246 44.5352 209.312 44.5352 211.152V218.5H42.0039ZM54.6016 218.746C50.9805 218.746 48.7891 216.273 48.7891 212.383V212.371C48.7891 208.516 51.0156 205.938 54.4727 205.938C57.9297 205.938 60.0508 208.422 60.0508 212.125V212.98H51.3203C51.3672 215.312 52.6445 216.672 54.6602 216.672C56.1602 216.672 57.1562 215.898 57.4727 214.973L57.5078 214.879H59.9102L59.8867 215.008C59.4883 216.965 57.5898 218.746 54.6016 218.746ZM54.4844 208.012C52.8438 208.012 51.5781 209.125 51.3555 211.188H57.543C57.332 209.055 56.1367 208.012 54.4844 208.012ZM62.0195 218.5V206.172H64.5508V208.035H64.6094C65.2539 206.781 66.5195 205.938 68.3828 205.938C71.0898 205.938 72.6484 207.684 72.6484 210.52V218.5H70.1055V211C70.1055 209.148 69.2383 208.105 67.4805 208.105C65.6992 208.105 64.5508 209.395 64.5508 211.316V218.5H62.0195ZM78.7188 218.723C76.2578 218.723 74.6055 217.211 74.6055 214.996V214.973C74.6055 212.828 76.2695 211.516 79.1875 211.34L82.5391 211.141V210.215C82.5391 208.855 81.6602 208.035 80.0898 208.035C78.625 208.035 77.7227 208.727 77.5117 209.711L77.4883 209.816H75.0977L75.1094 209.688C75.2852 207.566 77.125 205.938 80.1602 205.938C83.1719 205.938 85.082 207.531 85.082 210.004V218.5H82.5391V216.555H82.4922C81.7773 217.879 80.3477 218.723 78.7188 218.723ZM77.1602 214.938C77.1602 216.016 78.0508 216.695 79.4102 216.695C81.1914 216.695 82.5391 215.488 82.5391 213.883V212.922L79.5273 213.109C78.0039 213.203 77.1602 213.871 77.1602 214.914V214.938ZM92.7227 218.5V201.59H95.7578L101.23 215.09H101.301L106.785 201.59H109.809V218.5H107.418V206.02H107.336L102.238 218.5H100.293L95.1953 206.02H95.1133V218.5H92.7227ZM116.816 218.746C114.109 218.746 112.562 217 112.562 214.164V206.172H115.094V213.672C115.094 215.535 115.961 216.566 117.719 216.566C119.5 216.566 120.648 215.289 120.648 213.367V206.172H123.191V218.5H120.648V216.648H120.59C119.945 217.891 118.691 218.746 116.816 218.746ZM125.793 218.5V201.59H128.324V218.5H125.793ZM135.25 218.746C132.812 218.746 131.641 217.715 131.641 215.254V208.188H129.871V206.172H131.641V202.961H134.23V206.172H136.539V208.188H134.23V215.102C134.23 216.355 134.793 216.73 135.859 216.73C136.129 216.73 136.352 216.707 136.539 216.684V218.641C136.246 218.688 135.766 218.746 135.25 218.746ZM140.008 204.273C139.188 204.273 138.531 203.617 138.531 202.82C138.531 202.012 139.188 201.355 140.008 201.355C140.84 201.355 141.484 202.012 141.484 202.82C141.484 203.617 140.84 204.273 140.008 204.273ZM138.742 218.5V206.172H141.273V218.5H138.742ZM143.887 218.5V206.172H146.418V208.082H146.477C147.004 206.793 148.258 205.938 149.875 205.938C151.574 205.938 152.816 206.816 153.309 208.363H153.367C154 206.863 155.453 205.938 157.211 205.938C159.648 205.938 161.242 207.555 161.242 210.027V218.5H158.699V210.637C158.699 209.031 157.844 208.105 156.344 208.105C154.844 208.105 153.801 209.23 153.801 210.789V218.5H151.316V210.449C151.316 209.02 150.414 208.105 148.984 208.105C147.484 208.105 146.418 209.289 146.418 210.883V218.5H143.887ZM168.953 218.746C165.332 218.746 163.141 216.273 163.141 212.383V212.371C163.141 208.516 165.367 205.938 168.824 205.938C172.281 205.938 174.402 208.422 174.402 212.125V212.98H165.672C165.719 215.312 166.996 216.672 169.012 216.672C170.512 216.672 171.508 215.898 171.824 214.973L171.859 214.879H174.262L174.238 215.008C173.84 216.965 171.941 218.746 168.953 218.746ZM168.836 208.012C167.195 208.012 165.93 209.125 165.707 211.188H171.895C171.684 209.055 170.488 208.012 168.836 208.012ZM180.977 218.746C177.836 218.746 175.82 216.262 175.82 212.336V212.324C175.82 208.398 177.859 205.938 180.953 205.938C182.699 205.938 184.105 206.816 184.844 208.27H184.891V201.59H187.434V218.5H184.891V216.414H184.844C184.105 217.855 182.746 218.746 180.977 218.746ZM181.645 216.566C183.555 216.566 184.902 214.902 184.902 212.336V212.324C184.902 209.77 183.543 208.105 181.645 208.105C179.652 208.105 178.41 209.723 178.41 212.324V212.336C178.41 214.961 179.641 216.566 181.645 216.566ZM191.406 204.273C190.586 204.273 189.93 203.617 189.93 202.82C189.93 202.012 190.586 201.355 191.406 201.355C192.238 201.355 192.883 202.012 192.883 202.82C192.883 203.617 192.238 204.273 191.406 204.273ZM190.141 218.5V206.172H192.672V218.5H190.141ZM198.906 218.723C196.445 218.723 194.793 217.211 194.793 214.996V214.973C194.793 212.828 196.457 211.516 199.375 211.34L202.727 211.141V210.215C202.727 208.855 201.848 208.035 200.277 208.035C198.812 208.035 197.91 208.727 197.699 209.711L197.676 209.816H195.285L195.297 209.688C195.473 207.566 197.312 205.938 200.348 205.938C203.359 205.938 205.27 207.531 205.27 210.004V218.5H202.727V216.555H202.68C201.965 217.879 200.535 218.723 198.906 218.723ZM197.348 214.938C197.348 216.016 198.238 216.695 199.598 216.695C201.379 216.695 202.727 215.488 202.727 213.883V212.922L199.715 213.109C198.191 213.203 197.348 213.871 197.348 214.914V214.938Z" fill="white"/>
<path d="M28.5039 235.635C26.7109 235.635 25.4922 234.727 25.3867 233.297L25.3809 233.215H26.1836L26.1895 233.297C26.3066 234.27 27.209 234.891 28.5449 234.891C29.8691 234.891 30.7246 234.264 30.7246 233.285V233.279C30.7246 232.447 30.1973 231.984 28.8965 231.691L27.9707 231.486C26.3301 231.117 25.5918 230.408 25.5918 229.207V229.201C25.5977 227.859 26.7988 226.91 28.4746 226.91C30.1035 226.91 31.2871 227.859 31.3867 229.248L31.3926 229.33H30.5898L30.584 229.254C30.4609 228.264 29.6465 227.654 28.4512 227.654C27.2324 227.654 26.4062 228.27 26.4062 229.178V229.189C26.4062 229.975 26.957 230.455 28.1816 230.725L29.1074 230.936C30.8418 231.322 31.5449 231.996 31.5449 233.244V233.25C31.5449 234.697 30.3613 235.635 28.5039 235.635ZM34.5039 235.611C33.502 235.611 33.0098 235.137 33.0098 234.07V230.057H32.1133V229.406H33.0098V227.76H33.8066V229.406H35.0137V230.057H33.8066V234.059C33.8066 234.732 34.0938 234.961 34.6621 234.961C34.8027 234.961 34.9258 234.943 35.0137 234.932V235.564C34.8906 235.588 34.6914 235.611 34.5039 235.611ZM38.2129 235.605C36.8652 235.605 36.0625 234.738 36.0625 233.309V229.406H36.8418V233.18C36.8418 234.311 37.4043 234.914 38.4355 234.914C39.502 234.914 40.2051 234.152 40.2051 233.016V229.406H40.9844V235.5H40.2051V234.463H40.1875C39.877 235.119 39.1973 235.605 38.2129 235.605ZM44.5938 235.611C43.0586 235.611 42.0156 234.357 42.0156 232.453V232.447C42.0156 230.543 43.0645 229.295 44.5879 229.295C45.543 229.295 46.3281 229.834 46.6738 230.678H46.6914V227.045H47.4707V235.5H46.6914V234.234H46.668C46.3164 235.072 45.5547 235.611 44.5938 235.611ZM44.7402 234.92C45.8887 234.92 46.6973 233.924 46.6973 232.453V232.447C46.6973 230.982 45.877 229.986 44.7402 229.986C43.5684 229.986 42.8125 230.953 42.8125 232.447V232.453C42.8125 233.959 43.5684 234.92 44.7402 234.92ZM51.3262 235.611C49.6152 235.611 48.5547 234.398 48.5547 232.471V232.465C48.5547 230.555 49.6328 229.295 51.2617 229.295C52.8906 229.295 53.916 230.514 53.916 232.336V232.641H49.3398C49.3633 234.094 50.1426 234.92 51.3438 234.92C52.2402 234.92 52.8613 234.469 53.0605 233.807L53.0723 233.754H53.8398L53.8281 233.812C53.6172 234.855 52.6445 235.611 51.3262 235.611ZM51.2559 229.986C50.2188 229.986 49.4453 230.73 49.3516 232.025H53.1367C53.0488 230.695 52.2988 229.986 51.2559 229.986ZM54.9531 235.5V229.406H55.7266V230.443H55.75C56.0547 229.787 56.7402 229.301 57.7246 229.301C59.0723 229.301 59.8691 230.168 59.8691 231.598V235.5H59.0957V231.727C59.0957 230.596 58.5332 229.992 57.4961 229.992C56.4355 229.992 55.7266 230.754 55.7266 231.891V235.5H54.9531ZM62.9922 235.611C61.9902 235.611 61.498 235.137 61.498 234.07V230.057H60.6016V229.406H61.498V227.76H62.2949V229.406H63.502V230.057H62.2949V234.059C62.2949 234.732 62.582 234.961 63.1504 234.961C63.291 234.961 63.4141 234.943 63.502 234.932V235.564C63.3789 235.588 63.1797 235.611 62.9922 235.611ZM69.1211 237.551C68.0137 236.139 67.498 234.357 67.498 232.295C67.498 230.238 68.0137 228.457 69.1211 227.045H69.7949C68.8984 228.141 68.2891 230.35 68.2891 232.295C68.2891 234.246 68.8984 236.455 69.7949 237.551H69.1211ZM70.7617 235.5V234.938L73.75 231.797C74.9629 230.537 75.2617 230.027 75.2617 229.289V229.277C75.2559 228.322 74.5059 227.613 73.4746 227.613C72.3438 227.613 71.5234 228.381 71.5 229.371L71.4941 229.418H70.7207V229.365C70.7441 227.953 71.9336 226.91 73.457 226.91C74.9629 226.91 76.0586 227.93 76.0586 229.242V229.254C76.0586 230.162 75.6367 230.854 74.1367 232.4L71.875 234.756V234.785H76.2754V235.5H70.7617ZM80.3711 235.635C78.4609 235.635 77.3184 233.953 77.3184 231.281V231.264C77.3184 228.586 78.4609 226.91 80.3711 226.91C82.2812 226.91 83.4297 228.592 83.4297 231.264V231.281C83.4297 233.959 82.2812 235.635 80.3711 235.635ZM80.3711 234.932C81.7891 234.932 82.627 233.52 82.627 231.281V231.264C82.627 229.014 81.7891 227.619 80.3711 227.619C78.9531 227.619 78.1211 229.02 78.1211 231.264V231.281C78.1211 233.525 78.9531 234.932 80.3711 234.932ZM84.5898 235.5V234.938L87.5781 231.797C88.791 230.537 89.0898 230.027 89.0898 229.289V229.277C89.084 228.322 88.334 227.613 87.3027 227.613C86.1719 227.613 85.3516 228.381 85.3281 229.371L85.3223 229.418H84.5488V229.365C84.5723 227.953 85.7617 226.91 87.2852 226.91C88.791 226.91 89.8867 227.93 89.8867 229.242V229.254C89.8867 230.162 89.4648 230.854 87.9648 232.4L85.7031 234.756V234.785H90.1035V235.5H84.5898ZM94.0762 235.635C92.377 235.635 91.2871 234.674 91.1582 233.373L91.1523 233.309H91.9258L91.9316 233.361C92.0488 234.275 92.8457 234.932 94.0762 234.932C95.2949 234.932 96.1562 234.217 96.1562 233.215V233.203C96.1562 232.096 95.3242 231.463 93.9824 231.463H92.9629V230.777H93.9473C95.0723 230.777 95.8574 230.109 95.8574 229.178V229.166C95.8574 228.217 95.1602 227.613 94.0469 227.613C92.957 227.613 92.2012 228.229 92.1074 229.125L92.1016 229.184H91.3281L91.334 229.125C91.4629 227.824 92.5059 226.91 94.0469 226.91C95.6055 226.91 96.666 227.812 96.666 229.072V229.084C96.666 230.127 95.9395 230.859 94.8613 231.076V231.1C96.1211 231.199 96.9707 231.984 96.9707 233.186V233.197C96.9707 234.598 95.7461 235.635 94.0762 235.635ZM100.691 232.447V231.721H104.471V232.447H100.691ZM108.273 235.5V229.406H109.047V230.443H109.07C109.375 229.787 110.061 229.301 111.045 229.301C112.393 229.301 113.189 230.168 113.189 231.598V235.5H112.416V231.727C112.416 230.596 111.854 229.992 110.816 229.992C109.756 229.992 109.047 230.754 109.047 231.891V235.5H108.273ZM116.301 235.611C115.1 235.611 114.279 234.891 114.279 233.812V233.801C114.279 232.764 115.064 232.137 116.465 232.043L118.363 231.926V231.398C118.363 230.52 117.807 229.986 116.857 229.986C115.973 229.986 115.393 230.414 115.264 231.105L115.252 231.164H114.502L114.508 231.094C114.625 230.045 115.492 229.295 116.869 229.295C118.264 229.295 119.137 230.08 119.137 231.328V235.5H118.363V234.387H118.34C118.006 235.113 117.203 235.611 116.301 235.611ZM115.07 233.812C115.07 234.48 115.633 234.932 116.459 234.932C117.525 234.932 118.363 234.182 118.363 233.209V232.535L116.559 232.658C115.604 232.717 115.07 233.133 115.07 233.801V233.812ZM120.854 237.551C120.701 237.551 120.537 237.533 120.426 237.516V236.877C120.502 236.889 120.602 236.9 120.701 236.9C121.387 236.9 121.744 236.678 122.014 235.934L122.16 235.541L119.869 229.406H120.701L122.547 234.727H122.57L124.422 229.406H125.242L122.799 235.986C122.395 237.07 121.896 237.551 120.854 237.551ZM126.273 237.551H125.6C126.496 236.455 127.105 234.24 127.105 232.295C127.105 230.35 126.496 228.141 125.6 227.045H126.273C127.381 228.457 127.896 230.238 127.896 232.295C127.896 234.357 127.381 236.145 126.273 237.551Z" fill="white"/>
</svg>
