<svg width="112" height="29" viewBox="0 0 112 29" fill="none" xmlns="http://www.w3.org/2000/svg">
<path d="M8.15625 28.5L0.527344 3.13477H8.96484L12.9902 21.4336H13.1309L17.1562 3.13477H25.5938L17.9648 28.5H8.15625ZM28.9863 28.8516C26.9297 28.8516 25.2949 27.2168 25.2949 25.1602C25.2949 23.1035 26.9297 21.4688 28.9863 21.4688C31.043 21.4688 32.6777 23.1035 32.6777 25.1602C32.6777 27.2168 31.043 28.8516 28.9863 28.8516ZM40.0078 28.5L32.3789 3.13477H40.8164L44.8418 21.4336H44.9824L49.0078 3.13477H57.4453L49.8164 28.5H40.0078ZM62.9297 7.35352C60.9082 7.35352 59.3613 5.78906 59.3613 3.92578C59.3613 2.0625 60.9082 0.498047 62.9297 0.498047C64.9512 0.498047 66.498 2.0625 66.498 3.92578C66.498 5.78906 64.9512 7.35352 62.9297 7.35352ZM59.3262 28.5V9.09375H66.5332V28.5H59.3262ZM69.2402 28.5V9.09375H76.4473V12.6973H76.5879C77.5371 10.0781 79.5234 8.67188 82.459 8.67188C86.7305 8.67188 89.1211 11.3789 89.1211 16.0371V28.5H81.9141V17.6191C81.9141 15.668 81 14.4727 79.1895 14.4727C77.4844 14.4727 76.4473 15.791 76.4473 17.6016V28.5H69.2402ZM91.8281 28.5V3.13477H99.0352V12.6973H99.1758C100.125 10.0781 102.111 8.67188 105.047 8.67188C109.318 8.67188 111.709 11.3789 111.709 16.0371V28.5H104.502V17.6191C104.502 15.668 103.588 14.4727 101.777 14.4727C100.072 14.4727 99.0352 15.791 99.0352 17.6016V28.5H91.8281Z" fill="#3BD6C6"/>
</svg>
